<svg height='300px' width='300px'  fill="#000000" xmlns="http://www.w3.org/2000/svg" xmlns:xlink="http://www.w3.org/1999/xlink" version="1.1" x="0px" y="0px" viewBox="0 0 100 100" style="enable-background:new 0 0 100 100;" xml:space="preserve"><path d="M78.5,47.8L51,20.3c-0.2-0.2-0.4-0.3-0.7-0.3h-0.5c-0.3,0-0.5,0.1-0.7,0.3L21.5,47.8c-0.2,0.2-0.3,0.4-0.3,0.7V79  c0,0.6,0.4,1,1,1h20.5c0.6,0,1-0.4,1-1V63c0-3.3,2.7-6,6-6h0.5c3.3,0,6,2.7,6,6v16c0,0.6,0.4,1,1,1h20.5c0.6,0,1-0.4,1-1V48.5  C78.8,48.2,78.6,48,78.5,47.8z"></path></svg>