<svg height='300px' width='300px'  fill="#000000" xmlns="http://www.w3.org/2000/svg" xmlns:xlink="http://www.w3.org/1999/xlink" version="1.1" x="0px" y="0px" viewBox="0 0 100 100" style="enable-background:new 0 0 100 100;" xml:space="preserve"><path d="M78.7,77.3L60.9,59.5C64.7,55.4,67,50,67,44c0-12.7-10.3-23-23-23S21,31.3,21,44s10.3,23,23,23c6,0,11.4-2.3,15.5-6.1  l17.8,17.8c0.2,0.2,0.5,0.3,0.7,0.3s0.5-0.1,0.7-0.3C79.1,78.3,79.1,77.7,78.7,77.3z M44,65c-11.6,0-21-9.4-21-21s9.4-21,21-21  s21,9.4,21,21S55.6,65,44,65z"></path></svg>