<svg height='300px' width='300px'  fill="#000000" xmlns="http://www.w3.org/2000/svg" xmlns:xlink="http://www.w3.org/1999/xlink" version="1.1" x="0px" y="0px" viewBox="0 0 100 100" enable-background="new 0 0 100 100" xml:space="preserve"><g><path d="M84.5,47.608c0-19.023-15.477-34.5-34.5-34.5s-34.5,15.477-34.5,34.5s15.477,34.5,34.5,34.5   c3.222,0,6.411-0.444,9.521-1.332l0.08-0.024l17.069,5.998c0.272,0.096,0.552,0.142,0.829,0.142c0.009,0,0.018,0,0.027,0   c1.377-0.004,2.492-1.122,2.492-2.5c0-0.607-0.216-1.164-0.575-1.596l-6.264-9.634C80.396,66.62,84.5,57.402,84.5,47.608z    M67.786,74.038l3.616,5.562l-10.915-3.835c-0.269-0.094-0.549-0.142-0.829-0.142c-0.244,0-0.489,0.036-0.727,0.108l-0.821,0.25   c-2.624,0.749-5.353,1.128-8.11,1.128c-16.267,0-29.5-13.234-29.5-29.5s13.233-29.5,29.5-29.5s29.5,13.234,29.5,29.5   c0,8.867-3.936,17.182-10.754,22.78l-0.407,0.319C67.32,71.507,67.08,72.952,67.786,74.038z"></path></g></svg>